# xmcd
#
# Track frame offsets: 
#        150
#        25091
#        51788
#        70242
#        93196
#        112922
#        135683
#        158288
#
# Disc length: 2461 seconds
#
# Revision: 3
# Processed by: cddbd v1.5.2PL0 Copyright (c) Steve Scherf et al.
# Submitted via: ExactAudioCopy v1.3
#
DISCID=57099b08
DTITLE=押尾コータロー - Reboot and Collabo. [Disc 2]
DYEAR=2013
DGENRE=New Age
TTITLE0=瞳を閉じて with LISA
TTITLE1=IF YOU WANT with 氷室京介
TTITLE2=時の過ぎゆくままに with 工藤静香
TTITLE3=瞳をとじれば with カサリンチュ
TTITLE4=and Smile with 今井絵理子
TTITLE5=Smile Blue with DEEN
TTITLE6=Shape Of My Heart with 渡辺美里
TTITLE7=ナイト・ウェイブ (Live Version) with 甲斐よしひろ
EXTD=YEAR: 2013
EXTT0=
EXTT1=
EXTT2=
EXTT3=
EXTT4=
EXTT5=
EXTT6=
EXTT7=
PLAYORDER=
